<?xml version="1.0" standalone="no"?>
<!DOCTYPE svg PUBLIC "-//W3C//DTD SVG 20010904//EN"
 "http://www.w3.org/TR/2001/REC-SVG-20010904/DTD/svg10.dtd">
<svg version="1.0" xmlns="http://www.w3.org/2000/svg"
 width="906.000000pt" height="906.000000pt" viewBox="0 0 906.000000 906.000000"
 preserveAspectRatio="xMidYMid meet">
<metadata>
Created by potrace 1.11, written by Peter Selinger 2001-2013
</metadata>
<g transform="translate(0.000000,906.000000) scale(0.100000,-0.100000)"
fill="#FFFFFF" stroke="none">
<path d="M5258 7670 c-56 -30 -135 -116 -154 -168 -25 -67 -29 -70 -82 -66
-86 8 -120 5 -151 -10 -16 -9 -36 -16 -43 -16 -8 0 -45 31 -83 70 -81 81 -114
96 -177 80 -52 -14 -93 -44 -133 -98 -56 -76 -84 -78 -217 -16 -158 74 -209
70 -296 -18 l-50 -51 -61 41 c-33 22 -74 43 -91 47 -43 9 -101 -22 -185 -100
l-70 -65 -79 0 c-60 0 -90 -5 -122 -21 -76 -36 -153 -143 -154 -212 0 -21 -12
-39 -46 -70 -84 -76 -93 -133 -32 -203 28 -32 30 -38 22 -77 -8 -34 -13 -41
-29 -39 -11 2 -63 4 -115 5 -75 0 -107 -4 -150 -21 -82 -32 -149 -88 -203
-170 -46 -67 -51 -72 -85 -72 -91 0 -148 -39 -177 -119 -33 -96 -13 -177 68
-267 l46 -51 -24 -23 c-21 -20 -28 -21 -56 -11 -49 17 -92 13 -169 -15 -65
-24 -72 -25 -88 -11 -30 27 -89 47 -139 47 -91 0 -230 -88 -275 -174 -18 -34
-23 -62 -26 -161 -4 -120 -4 -120 -37 -157 -43 -47 -55 -91 -55 -204 l0 -92
-40 -48 c-53 -64 -70 -103 -70 -156 1 -54 41 -130 92 -171 52 -42 131 -49 182
-17 26 15 44 20 65 15 67 -15 71 -68 12 -179 -35 -67 -41 -86 -41 -140 0 -171
104 -319 223 -318 27 1 54 11 90 36 67 45 90 50 168 36 78 -14 146 -15 182 -1
56 21 111 -27 155 -137 39 -94 67 -129 138 -172 100 -60 174 -47 308 55 l60
44 30 -23 c96 -73 159 -75 282 -11 76 40 93 45 150 45 36 0 79 6 97 14 43 17
85 68 93 111 l6 35 32 -23 c61 -43 178 -162 236 -239 175 -232 243 -448 270
-867 26 -395 -51 -1048 -187 -1588 l-29 -113 603 0 c367 0 603 4 603 9 0 5 -5
22 -11 38 -6 15 -31 100 -55 188 -146 526 -224 1081 -196 1392 22 243 83 514
144 643 36 76 53 97 161 202 67 65 125 118 129 118 4 0 24 -11 44 -25 53 -36
95 -33 143 10 21 19 43 35 49 35 5 0 22 -20 36 -45 36 -60 73 -78 152 -73 95
6 144 41 224 161 77 115 105 137 176 137 40 0 57 -5 78 -25 23 -21 26 -32 26
-85 0 -54 3 -65 28 -90 36 -36 89 -44 188 -31 95 14 117 27 139 86 10 25 19
45 21 45 1 0 33 -7 71 -15 106 -24 219 -64 323 -112 52 -25 108 -49 124 -54
56 -16 100 5 184 90 71 71 84 80 157 104 99 33 135 55 171 103 28 37 29 40 29
163 0 83 4 134 13 148 21 38 15 98 -14 133 -41 48 -95 70 -200 82 -92 11 -94
11 -94 37 0 47 -34 85 -109 125 -41 22 -71 44 -71 53 0 11 6 14 25 9 132 -33
224 2 270 104 17 39 21 41 49 36 96 -19 123 -19 144 2 41 41 52 125 26 211
-16 55 -56 91 -100 91 -39 0 -49 25 -29 70 10 22 27 47 37 57 40 36 64 100 60
160 -3 31 -56 89 -111 120 -25 15 -47 27 -49 28 -1 1 2 23 8 49 14 65 -3 125
-51 180 -44 50 -91 75 -158 85 l-46 6 -3 53 c-2 40 2 64 19 95 69 132 -29 279
-233 348 -91 31 -176 23 -293 -25 -49 -21 -98 -40 -108 -43 -22 -7 -60 27 -94
85 -24 41 -25 48 -19 137 6 81 4 101 -12 137 -24 55 -81 105 -129 114 -21 3
-56 15 -79 25 -22 10 -50 19 -63 19 -33 0 -81 -27 -128 -72 -63 -62 -73 -51
-72 74 0 57 -4 114 -9 128 -12 30 -56 72 -97 93 -41 20 -145 47 -184 47 -29 0
-31 2 -31 38 0 21 -12 62 -26 90 -35 71 -83 96 -170 89 l-61 -4 -49 49 c-27
28 -66 59 -86 69 -50 26 -150 25 -200 -1z m-1487 -389 c95 -100 139 -103 228
-11 65 67 114 66 140 -3 10 -26 14 -27 81 -27 l71 0 58 -59 c84 -85 145 -91
253 -22 91 58 105 63 148 51 59 -16 97 -54 142 -144 22 -44 52 -93 66 -108 37
-40 108 -53 197 -36 97 19 125 10 202 -67 117 -117 156 -251 103 -360 -27 -55
-51 -63 -121 -40 -61 21 -104 16 -165 -20 -70 -41 -72 -89 -7 -165 21 -24 33
-45 27 -47 -64 -21 -54 -64 27 -121 51 -37 60 -47 57 -70 l-3 -27 -127 -5
c-117 -5 -128 -7 -152 -29 -16 -15 -34 -52 -46 -92 -41 -137 -116 -146 -235
-29 -67 66 -114 90 -178 90 -50 0 -64 12 -142 124 -66 94 -100 109 -221 96
-145 -17 -173 -29 -229 -103 -75 -98 -92 -175 -56 -253 24 -53 43 -66 155
-104 128 -44 138 -54 146 -132 6 -51 14 -75 44 -117 20 -29 36 -59 36 -66 0
-7 -13 -27 -29 -44 -28 -29 -33 -31 -105 -31 -83 0 -94 -6 -129 -70 -16 -29
-21 -32 -51 -27 -19 3 -71 22 -117 42 -194 85 -353 108 -434 62 -48 -27 -79
-80 -96 -164 l-13 -63 48 -90 c38 -74 47 -99 44 -133 -3 -39 -7 -45 -68 -85
-35 -23 -71 -54 -78 -68 -24 -46 -13 -66 58 -100 71 -35 100 -69 100 -121 0
-50 -26 -69 -105 -77 -104 -11 -143 -37 -166 -114 l-12 -42 -77 6 c-102 9
-139 -8 -183 -84 -40 -69 -76 -96 -123 -95 -45 1 -53 11 -88 95 -33 79 -88
136 -159 163 -42 16 -54 17 -102 5 -38 -9 -71 -10 -112 -4 -137 20 -239 2
-282 -50 -48 -58 -141 63 -141 183 0 21 17 68 42 119 51 102 58 180 22 228
-65 87 -165 119 -239 75 -50 -29 -68 -27 -104 14 -43 49 -41 81 10 141 65 79
71 95 71 207 -1 104 7 132 41 156 34 24 47 74 47 184 0 57 5 118 11 135 11 33
50 67 116 101 64 32 96 28 149 -21 l45 -41 101 38 c100 38 101 38 144 22 70
-26 143 8 190 89 39 66 33 95 -36 169 -64 69 -76 96 -66 150 8 42 38 65 86 66
73 1 102 19 155 99 56 84 116 134 178 151 41 11 174 7 244 -7 43 -8 75 26 97
106 l17 60 60 0 c32 0 59 3 59 8 -1 4 -41 35 -90 70 -61 43 -90 69 -90 82 0
11 4 20 8 20 4 0 26 17 48 38 32 31 42 50 52 100 22 105 85 159 176 148 80 -9
116 7 206 89 45 41 87 75 94 75 7 0 41 -31 77 -69z m1175 -2622 c44 -28 81
-53 82 -55 2 -1 -9 -26 -24 -54 -34 -63 -97 -137 -124 -145 -54 -17 -85 52
-78 171 5 71 30 134 54 134 6 0 47 -23 90 -51z m-535 -33 c26 -18 81 -21 109
-6 23 12 28 -5 36 -135 8 -120 -7 -202 -43 -245 -21 -26 -32 -30 -75 -30 -43
0 -54 4 -83 33 -38 38 -62 113 -71 219 -6 66 -3 78 20 124 14 29 26 54 26 57
0 3 5 18 10 33 l11 28 19 -31 c10 -17 29 -38 41 -47z m-373 -191 c23 -43 46
-94 52 -113 10 -39 -1 -79 -25 -89 -21 -8 -82 21 -124 58 l-33 31 4 83 c5 93
17 118 57 113 21 -2 34 -18 69 -83z m1051 -209 c12 -20 39 -49 59 -66 l36 -29
-40 -47 c-53 -63 -113 -104 -160 -111 -50 -6 -65 10 -72 76 -7 75 20 141 86
213 l57 61 6 -31 c3 -16 16 -46 28 -66z"/>
<path d="M2768 3461 l-128 -208 0 -74 c0 -41 -7 -211 -14 -379 -8 -168 -20
-433 -26 -590 -6 -157 -13 -300 -16 -317 l-5 -33 -264 0 -265 0 -2 278 -3 277
-127 3 -128 3 0 124 0 125 -585 0 -585 0 0 -125 0 -125 -130 0 -130 0 0 -280
0 -280 -180 0 -180 0 0 -70 0 -70 247 2 248 3 3 278 2 277 130 0 130 0 0 125
0 125 448 0 447 0 0 -122 0 -123 127 -3 128 -3 2 -277 3 -277 400 0 400 0 7
125 c4 69 14 287 22 485 9 198 21 477 27 620 l11 260 57 97 c31 54 59 98 62
98 4 0 32 -43 64 -95 53 -87 58 -102 61 -163 2 -37 11 -229 19 -427 29 -681
35 -830 41 -912 l6 -83 488 0 487 0 12 57 c6 31 11 60 11 65 0 4 -195 9 -432
10 l-433 3 -7 120 c-4 66 -14 287 -23 490 -8 204 -20 465 -26 580 l-11 210
-123 200 c-67 109 -126 200 -131 202 -5 1 -66 -91 -136 -206z"/>
<path d="M7157 3254 c-4 -4 -7 -46 -7 -94 l0 -86 -51 -18 c-118 -43 -238 -153
-293 -269 -43 -92 -56 -167 -56 -334 l0 -153 -365 0 -365 0 0 -220 0 -220
-420 0 c-474 0 -428 10 -406 -85 l11 -50 475 0 475 0 3 218 2 217 360 0 360 0
1 43 c0 23 4 132 8 242 10 243 21 283 111 379 67 71 141 112 231 128 l59 10 0
79 0 79 60 0 59 0 3 -77 3 -77 65 -16 c90 -23 157 -60 211 -117 102 -107 119
-167 119 -424 0 -103 3 -201 6 -218 l7 -31 353 0 354 0 2 -212 3 -213 263 -3
262 -2 0 70 0 70 -195 0 -195 0 0 215 0 215 -359 0 -359 0 -5 178 c-3 123 -10
192 -21 225 -47 143 -152 268 -277 331 -40 20 -78 36 -85 36 -10 0 -14 24 -16
93 l-3 92 -191 3 c-104 1 -193 -1 -197 -4z"/>
</g>
</svg>
