<?xml version="1.0" encoding="utf-8"?>
<!-- Generator: Adobe Illustrator 24.0.3, SVG Export Plug-In . SVG Version: 6.00 Build 0)  -->
<svg version="1.1" id="Layer_1" xmlns="http://www.w3.org/2000/svg" xmlns:xlink="http://www.w3.org/1999/xlink" x="0px" y="0px"
	 viewBox="0 0 519.7 447" style="enable-background:new 0 0 519.7 447;" xml:space="preserve">
<style type="text/css">
	.st0{fill:#2C0F0F;}
</style>
<g>
	<path class="st0" d="M391.1,257.3c0,0,0.3,19.2,0.3,19.2s30.7,0,36,0c0,4.8,0,21.7,0,21.7l70.2-0.1v-6.4c0,0-58.9,0.1-63.8,0.1
		c0-4.8,0-21.7,0-21.7s-30.8,0-36.1,0c0-4.1-0.2-12.9-0.2-12.9c0-12.3-8.2-22.7-19.9-26c0-2.4,0-9,0-9h-3.2h-16.2c0,0,0,6.6,0,9
		c-11.8,3.2-20.1,13.6-20.1,26.1c0,0-0.2,8.2-0.3,12.8c-5.1,0-36.3,0-36.3,0l0,21.8l-42.3-0.1l1.4,6.4l47.4,0c0,0,0-17.1,0-21.8
		c5.2,0,36.1,0,36.1,0l0.4-19.1c0-10.3,7.3-18.9,17.4-20.6l2.7-0.4c0,0,0-5.4,0-7.7c2.5,0,4.2,0,6.6,0c0,2.4,0,7.7,0,7.7l2.6,0.5
		C383.9,238.6,391.1,247.2,391.1,257.3z"/>
	<path class="st0" d="M24.7,270.6c3.6,0,13,0,13,0s0-9.1,0-12.6c5.2,0,40.2,0,45.5,0c0,3.6,0.1,12.6,0.1,12.6s9.1,0,12.7,0
		c0,5,0,27.8,0,27.8h39.9l3.3-74.6l6.2-10.4l6.4,10.4l3.3,74.6l48.3,0l1.5-6.4c0,0-38.8,0-43.7,0c-0.2-5.7-3.1-70.2-3.1-70.2
		l-12.6-20.5l-12.6,20.5c0,0-2.9,64.6-3.1,70.3c-4.5,0-22.7,0-27.4,0c0-5,0-27.8,0-27.8s-9.1,0-12.7,0c0-3.6,0-12.6,0-12.6H31.2
		c0,0,0,9.1,0,12.6c-3.6,0-13,0-13,0s0,22.7,0,27.7c-5.4,0-18.2,0-18.2,0l0,6.4h24.7C24.7,298.3,24.7,275.6,24.7,270.6z"/>
	<path class="st0" d="M74.2,365.7l-2.7-0.3c-5.2,11.2-10.8,17-22.8,17c-17.3,0-27.9-13.7-27.9-34.3c0-16.8,8.6-31.4,27.8-31.4
		c10.5,0,17.3,3.3,20.5,15.6l2.7-0.2c-0.6-5.6-1.1-10.3-1.9-16.2c-3-0.6-10.2-2.8-19.3-2.8c-23.4,0-40.4,15.3-40.4,37.3
		c0,17,11.3,35.4,38.4,35.4c7.5,0,17.1-2.2,20.1-3C70.5,378.9,72.8,370.3,74.2,365.7z"/>
	<path class="st0" d="M116.9,379.4c-1.6,0-3-1.8-3-5.8v-24.1c0-3.9-0.5-7.6-4.1-10.4c-2.1-1.6-5.5-2.6-8.5-2.6
		c-7.6,1.4-13.9,5.5-16.5,7.4c-2.4,1.7-3.6,3.2-3.6,4.6c0,1.9,2.9,3.6,4.6,3.6c1.2,0,2.1-0.8,2.5-2c1.2-4.5,3.4-9,8.7-9
		c5.7,0,8.8,3.5,8.8,10.2v3.6c-3.2,2.2-12,5.4-17.2,7.5c-5.6,2.2-8.1,5.9-8.1,10.8c0,5.9,5,12.3,12.8,12.3c2.2,0,8-4.1,12.5-7
		c0.6,2.7,2.2,6.3,5.9,7l10.8-5.2l-1-2.4C119.6,379,117.8,379.4,116.9,379.4z M105.8,375.5c-2.9,2.2-6.8,4.2-9.3,4.2
		c-3.2,0-7.1-2.7-7.1-8.3c0-3.9,1.8-6,5.6-8c2-1.1,8.5-4,10.8-4.9V375.5z"/>
	<path class="st0" d="M148,356.4c-4.7-1.9-9.3-4.9-9.3-9.3c0-3.5,2.2-7.3,7.1-7.3c4.1,0,7.5,2.5,10.7,9.5l2.6-0.6
		c-0.2-1.8-1.3-7.8-2.4-10.3c-2.1-1-5.1-1.8-9-1.8c-9.3,0-15.9,6.3-15.9,14c0,7.1,5.9,10.7,12.8,13.8c5.9,2.6,8.3,5.7,8.3,10.1
		c0,5.2-3.7,7.9-7.6,7.9c-6.3,0-11.1-6.8-12.8-13.1L130,370c0,4.2,0.6,10.1,1.3,11.7c2,1.7,7,4,12.4,4c8.1,0,17.2-4.8,17.2-14.7
		C160.9,363.8,155.8,359.6,148,356.4z"/>
	<path class="st0" d="M207.3,373.6c-4.3,3.9-7.5,5.1-11,5.1c-7.7,0-17.8-5.6-17.4-21.5c13.3-0.4,26.5-1.5,28-1.8
		c1.9-0.4,2.2-0.6,2.2-4c0-7.2-7-14.9-15.3-14.9c-12.8,0-22.9,12.1-22.9,26.4c0,12.4,8.1,22.6,21.7,22.6c2.9,0,10.3-2.1,16.2-10.5
		L207.3,373.6z M191.1,340.2c5.6,0,9,5.1,9,9.4c0,2.9-0.4,3.4-1.9,3.4l-18.6,0.3C180.4,345.5,185.9,340.2,191.1,340.2z"/>
	<path class="st0" d="M265.8,340.3v-2.5h-18.8v2.5l4,0.5c2.5,0.3,2.7,1.3,1.5,4.6c-1.3,3.7-7.8,20.7-10.5,26.6l-9.3-26.3
		c-1.1-3-1.2-4.7,1.2-5l3.2-0.4v-2.5h-21.7v2.5c6.6,0.7,7,1.3,9.4,7.9c3.1,8.2,8.1,21.3,11.8,32.6c0.4,1.3,0.4,2.6,0.1,3.5
		c-0.4,1.3-1.8,4.6-3.3,7.8c-1.9,4-4.4,7.2-7.4,9.3c-1.7,1.3-2.9,2.2-3,3.7c0.1,2.6,2.7,4.9,5.3,4.9c1.2,0,2.8-0.5,3.3-2.7
		c1.6-5.7,4.4-12.4,11.4-29.1c6.8-16.2,10.7-24.9,13.6-30.3C259.9,341.8,260,341.4,265.8,340.3z"/>
	<path class="st0" d="M333.6,312.1h-1.5c-1.7,2-2.2,2.7-5,2.7h-43.9c-2.9,0-4-0.2-5.6-2.7h-1.5c-0.2,5.5-0.9,12.3-1.3,18.8h2.7
		c1.3-4.7,2.6-7.7,3.7-9.2c1.6-2,4.5-3.4,14-3.4h5v50.5c0,11.7-0.9,12.4-10.9,13.1v2.5h31.2v-2.5c-10.5-0.6-11.3-1.4-11.3-13.1
		v-50.5h7.2c6.6,0,10,0.8,11.8,2.8c1.6,1.7,2.8,4.7,3.9,9.8l2.7-0.3C334.2,324.4,333.7,316.6,333.6,312.1z"/>
	<path class="st0" d="M363.7,336.6c-5.1,0-10.4,6.6-12.8,10.8h-0.2v-11c-5.3,1.9-10.6,3.2-15.6,4.3v1.9c7.1,0.9,7.3,1,7.3,7.4v24.7
		c0,6-0.5,6.5-7.4,7.2v2.5h24.6v-2.5c-8.3-0.6-8.9-1.2-8.9-7.2v-22.6c2.8-5.6,5.6-7.6,8.1-7.6c1.9,0,3.1,1,4.6,2.2
		c0.5,0.4,1.5,0.6,2.7,0.1c2.2-1,3.4-3.4,3.4-5.2C369.4,339.5,366.9,336.6,363.7,336.6z"/>
	<path class="st0" d="M412.3,351.5c0-7.2-7-14.9-15.3-14.9c-12.8,0-22.9,12.1-22.9,26.4c0,12.4,8.1,22.6,21.7,22.6
		c2.9,0,10.3-2.1,16.2-10.5l-1.5-1.5c-4.3,3.9-7.5,5.1-11,5.1c-7.7,0-17.8-5.6-17.4-21.5c13.3-0.4,26.5-1.5,28-1.8
		C412,355,412.3,354.8,412.3,351.5z M401.3,353.1l-18.6,0.3c0.9-7.9,6.4-13.2,11.6-13.2c5.6,0,9,5.1,9,9.4
		C403.2,352.5,402.8,353.1,401.3,353.1z"/>
	<path class="st0" d="M460.1,375.1l-1.5-1.5c-4.3,3.9-7.5,5.1-11,5.1c-7.7,0-17.8-5.6-17.4-21.5c13.3-0.4,26.5-1.5,28-1.8
		c1.9-0.4,2.2-0.6,2.2-4c0-7.2-7-14.9-15.3-14.9c-12.8,0-22.9,12.1-22.9,26.4c0,12.4,8.1,22.6,21.7,22.6
		C446.8,385.6,454.2,383.5,460.1,375.1z M442.3,340.2c5.6,0,9,5.1,9,9.4c0,2.9-0.4,3.4-1.9,3.4l-18.6,0.3
		C431.6,345.5,437.2,340.2,442.3,340.2z"/>
	<path class="st0" d="M500.8,370.9c0-7.2-5.1-11.3-12.9-14.6c-4.7-1.9-9.3-4.9-9.3-9.3c0-3.5,2.2-7.3,7.1-7.3
		c4.1,0,7.5,2.5,10.7,9.5l2.6-0.6c-0.2-1.8-1.3-7.8-2.4-10.3c-2.1-1-5.1-1.8-9-1.8c-9.3,0-15.9,6.3-15.9,14
		c0,7.1,5.9,10.7,12.8,13.8c5.9,2.6,8.3,5.7,8.3,10.1c0,5.2-3.7,7.9-7.6,7.9c-6.3,0-11.1-6.8-12.8-13.1l-2.5,0.6
		c0,4.2,0.6,10.1,1.3,11.7c2,1.7,7,4,12.4,4C491.7,385.6,500.8,380.8,500.8,370.9z"/>
	<path class="st0" d="M80.1,145.9c2.2,0.4,4.4-0.2,6.1-1.7c0.3-0.3,1.1-0.5,2.1-0.3c1.4,0.3,2.7,1.2,3.2,2.4
		c0.5,1.2,0.2,3.8-2.2,7.3c-4.2,6-1.5,16.1,3.6,20.5c3.2,2.7,6.9,2.8,9.8,0.1c3.1-2.9,5.8-2.3,9.2-1.7c2.6,0.5,5.5,1.1,8.4-0.2
		c0.8-0.4,1.7-0.3,2.7,0.1c1.8,0.8,3.7,2.7,4.4,4.7c0.3,0.7,0.5,1.3,0.7,1.9c1.9,5.2,2.7,6.6,8.4,9.9c5.1,2.9,10.3-1.1,14.5-4.2
		c0.9-0.7,1.8-1.4,2.6-1.9c6.4,7.3,12.5,3.6,16.3,1.4c1.7-1,3.4-2,4.4-1.8c3.9,0.6,6.7,0.1,8.8-1.6c2.2-1.8,2.8-4.4,3-6.6
		c8.1,5.8,20.7,17.7,25,37.4c9.3,42.3-8.4,104.8-8.4,104.8h60c-4.7-13.1-17.6-61.9-12.4-89.6c3.9-20.9,5.1-26.4,14.9-34.9
		c2.3-2,4.3-3.9,6.2-5.8c2.2,2.2,3.9,3.1,5.5,3.1c0,0,0,0,0,0c2.1,0,3.4-1.5,4.2-2.5c1-1.2,1.2-1.4,2.3-1.1c0.7,0.2,0.8,0.4,1.3,1.5
		c1,2.2,2.4,4.5,7,4.5c0.3,0,0.5,0,0.8,0c6.5-0.3,9.6-5.5,12.1-9.7c0.5-0.8,0.9-1.6,1.4-2.3c1.3-2,4.1-3.4,6.9-3.3
		c1.3,0,3.6,0.4,4.9,2.6c0.6,1.1,0.5,2.1,0.4,3.3c-0.1,1.3-0.3,3.2,1.2,4.6c1.4,1.4,3.8,1.8,8.6,1.3c4.8-0.5,6.6-1.2,7.4-4.4
		c0.2-0.6,0.3-1.2,1.1-2.1c3.2,0,15.7,3.5,22.3,7.4c5.4,3.1,8.5,2.3,13.6-3.8c2.5-2.9,3.2-3.1,7.7-4.5l0.2-0.1
		c10.8-3.3,9.7-9.9,9-14.3c-0.3-1.9-0.6-3.6,0-4.6c1.9-3.4,1.4-5.8,0.5-7.3c-2.2-3.9-8.6-4.6-12.2-4.7l-0.8,0c-0.8,0-1.7,0-2.2-0.1
		c0-0.1,0-0.2,0-0.3c0.4-4.9-3.6-6.8-6.2-8c-3.1-1.5-3.4-1.9-3.2-3.2c0-0.1,0-0.2,0.1-0.3c0.5,0,1.6,0.2,2.3,0.4
		c3.4,0.7,9.8,2.1,12.9-5.9c0.8-1.9,1.1-1.9,3.6-1c1.6,0.6,3.6,1.3,5.4,0.1c1.9-1.2,2.1-3.6,2.1-4.4c0.4-4.4-0.3-7.4-1.9-9.1
		c-0.9-1-2.2-1.5-3.5-1.4c-0.7,0-1.8-0.4-2.2-1.2c-0.6-1.2,0.4-3.5,2.7-6c2.3-2.5,3.2-4.9,2.8-7.2c-0.6-3.6-4.2-5.6-6.9-7
		c-0.5-0.3-1.2-0.6-1.6-0.9c2.4-4.8,1-9.7-3.9-13.3c-2.3-1.7-4.6-1.9-6.3-2c-0.6-0.1-1.5-0.1-1.7-0.3c0,0,0,0-0.1-0.1
		c-0.7-1.9-0.2-6.4,0.5-7.3c1.8-2.5,2.1-5.5,0.8-8.3c-2.6-5.7-11-9.7-15.8-10.1c-4.9-0.5-9,1.4-12.4,2.9c-2,0.9-4.2,2-4.9,1.4
		c-4.8-3.9-6.2-7.9-4.4-13.1l0.2-0.6l-0.1-0.6c-0.9-6.2-4.2-9.4-9.7-9.6c-1.4-1.2-2.9-1.9-4.5-1.9c0,0,0,0,0,0c-2.9,0-5,2.1-6.7,3.8
		c-0.8,0.8-2.2,2.2-2.6,2c-1.1-0.5-1.2-1.7-1-5.4c0.1-1.6,0.2-3.3,0-5.2c-0.1-1.5-0.9-3.7-3.8-5.6c-3.3-2.1-8.4-3.2-12.5-3.3
		c0.5-3.2-0.3-6.5-2.4-8.6c-1.2-1.3-4.5-3.7-10.1-1.6c-3.5-4.7-7-7.1-10.8-7.4c-3.7-0.3-7.2,1.4-10.7,5.3l-0.1,0.2
		c-0.8,0.9-2.8,3-3.3,6.8c-0.5,0.4-0.9,0.7-1.3,0.9c-1-0.2-2-0.2-2.9,0c0,0,0,0,0,0c-1.7-0.6-4.3-1.4-8.1,1c-1,0.7-2.1,0-5-3.2
		c-2-2.3-4.2-4.6-7-4.5c-4.6,0.2-6.6,2.9-8.2,5c-1.1,1.5-2,2.7-3.6,3.2c-2.2,0.7-4.8-0.7-7.6-2.1c-4.3-2.2-10.2-5.3-15.2,1.1
		c-1.4,1.7-2.1,2-2.4,2c-0.6,0.1-1.6-0.7-2.6-1.5c-2-1.6-5-4-8.9-1.8c-2,1.1-3.5,2.6-5,4.2c-2.8,2.8-4.2,4-6.2,3.4
		c-3.2-0.9-6.5-0.1-9.5,2.2c-3.5,2.8-5.8,7-5.8,11c-0.3,0.3-0.9,0.8-1.4,1.1c-1.8,1.3-4.2,3.2-4.2,6.2c0,2,1.2,4,3.6,6
		c-0.5,2.3-0.9,3.9-1.2,4.9c-8.9-2.4-19.9-0.6-25.9,11.3c-0.4,0.9-0.9,1-3.1,1.1c-3,0.2-7.9,0.5-9.2,8.9c-0.7,4.7,3,9.4,6.4,12
		c0.1,0.1,0.1,0.1,0.1,0.1c0,0.1-0.1,0.5-0.6,1.2c-0.8,1-1.9,1.7-2.5,1.9c-3.9-2.3-7.7-0.7-11.1,0.8c-0.7,0.3-1.4,0.6-2.1,0.8
		c-6.5-6.3-13.2-2.6-18.4,1.5c-4.7,3.6-4.5,9.6-4.3,14c0.1,1.5,0.1,3.6-0.2,4.2c-4.4,3.5-4.3,6.5-4.2,10.4c0.1,1.4,0.1,2.9,0,4.9
		c-0.1,1.1-1.1,2.3-2.2,3.6c-2.1,2.4-5.3,6-2.5,11.5C74.5,143,77.1,145.3,80.1,145.9z M177.3,177.5c0.6-0.3,0.9-0.4,0.9-0.4
		c0.6-0.1,1.1-0.1,1.7-0.2C179.3,177.3,178.4,177.5,177.3,177.5z M259.8,171.4c-0.3-0.3-0.5-0.6-0.8-0.9c-0.1-0.1-0.1-0.2-0.2-0.3
		C259.5,170.6,259.9,170.8,259.8,171.4z M204.3,172.7c-1.8,2-5.5-0.7-9-4c0-0.2,0-0.5,0-0.7c-0.1-2.3-0.2-8.5,2-9.5
		c1.1-0.5,1.6-0.2,3.2,0.6c0,0,0,0,0,0C202.4,164.2,207.5,169.3,204.3,172.7z M228.5,165.2c-0.3,4.6-1.7,9-5.3,9.5
		c-5.5,0.4-7.9-3-9.1-12.9c-0.1-1.2-0.2-2.7-0.1-4.4c1.3-1.5,2-3.5,2.5-5.1c0.4-1.3,0.9-2.7,1.5-3.1c0.2,0.3,0.3,0.6,0.5,0.9
		c0.7,1.5,2,4,4.9,4h0c1.7,0,3.1-0.7,4.1-1.2c0,0,0.1,0,0.1,0C228.2,157.2,228.7,161.6,228.5,165.2z M242.6,164.7
		c-3-1.3-3-7.2-2.2-12.9c0.7-0.9,1.2-1.8,1.7-2.7c0.1-0.2,0.2-0.3,0.3-0.3c1.3-0.3,4.7,2.1,6.6,3.5c1.2,0.9,2.3,1.6,3.2,2.1
		C249.3,160.2,245.5,166,242.6,164.7z M246.5,185.6c-2.2-2.7-1.2-9.7,2.9-13.7c1.2-1.2,2.5-2.7,3.9-4.3c-0.1,2.1,0.3,4.2,1.9,6.1
		c1.6,2,3.1,3.3,4.6,4.2c-0.1,0.2-0.2,0.3-0.3,0.5C255,185,248.7,188.3,246.5,185.6z M79,131.4c1.6-1.8,3.3-3.8,3.5-6.6
		c0.1-2.2,0.1-3.9,0-5.4c-0.1-3.5-0.2-4.4,2.3-6.3c2.3-1.8,2.2-4.9,2-8.3c-0.1-3.8-0.3-7.7,2.4-9.8c6.9-5.3,9.7-4.5,12.7-0.9
		l1.1,1.2l1.6-0.5c1.4-0.4,2.7-1,4-1.5c3.2-1.4,5.1-2.1,6.9-0.9c2.8,1.9,7.1-0.9,9-3.6c2.1-3,1.8-6.1-0.7-8.1
		c-2.5-1.9-4.8-5-4.5-7.3c0.6-4.4,1.9-4.5,4.5-4.7c2.2-0.1,5.4-0.3,7.2-3.9c6.1-12.3,17.9-9.5,21.4-8.3c0.8,0.3,1.7,0.2,2.5-0.3
		c1.7-1,2.5-3.5,3.6-8.3l6.1,0.1l-6.6-4.7c-2.8-2-2.9-3-2.9-3c0-0.5,1.5-1.6,2.2-2.1c1.6-1.2,3.5-2.6,3.4-4.9
		c-0.1-2.5,1.5-5.5,3.8-7.3c1-0.8,2.9-2,5.1-1.4c5.1,1.5,8.4-2,11.2-4.7c1.3-1.3,2.5-2.6,3.8-3.3c0.3-0.2,0.5-0.2,0.8-0.2
		c0.6,0.4,1.3,1.2,2.3,2.4c3.1,3.2,3.6,4.9,7.4,5c4.8,0.1,6.4-9.2,11.4-4.7c1.8,1.7,0.3,3.1,3.3,3.1c1.8,0,4.8-0.7,6.3,0.8
		c1.5,1.5,3.8,6.1,8.8,5.4c5.6-0.9,8.4-5.6,11.5-5.2c13.5,1.8,4.2,19.5,24.2,14.2c4.9-1.3,13.7,9,14.3,15.6c0.3,3.1-0.4,7-3,9.3
		c-2.9,2.5-6.2-4.3-13.5,1c-6,4.3,4.4,9.6,2.4,10.2c-8,2.4,3.5,6,4.1,8.7c1.2,5.9-10.2-0.2-14.6,3.9c-3,2.8-1.4,10.5-7.8,10.1
		c-7.5-0.5-6.2-9-15.7-8.3c-5.2,0.4-6.9-12.2-14.4-11.5c-12.4,1.2-11.8,1.7-15.9,7.3c-4.3,5.9-1.6,12.5,1.5,13.8
		c7.3,3,12.7,3.1,12.2,7.8c-0.6,5.4,5.1,8.1,4,10.4c-3.9,8.1-10.1-0.7-12.6,6.5c-1.4,4-5.7,1.3-10.6-0.8c-7.3-3.1-20.2-7.4-23.6,1.6
		c-3.4,8.9,0.1,9.3,2.6,15.3c3.3,8-7.2,6.4-7.6,12.4c-0.3,3.7,7,2.1,8.2,7.3c2.7,11.2-12.1,0.7-13.6,12.9c-0.4,3.4-8.8-3.4-13,4.1
		c-1.7,3-3.4,7.3-9.5,5.1c-0.4-0.7-0.7-1.7-1.2-2.9c-0.2-0.6-0.4-1.2-0.7-1.9c-1.3-3.3-4.1-6.3-7.2-7.5c-2.3-0.9-4.6-1-6.7,0
		c-1.4,0.6-3.2,0.3-5.3-0.2c-3.7-0.7-8.7-1.8-13.7,2.9c-0.5,0.5-1.3,1.3-3.1-0.2c-3.3-2.9-5.3-10.2-2.8-13.8
		c3.1-4.4,4.1-8.8,2.7-12.1c-1.1-2.6-3.7-4.7-6.8-5.3c-2.6-0.5-5,0-6.5,1.5c-0.5,0.4-1.1,0.6-1.8,0.5c-1.4-0.3-2.8-1.6-3.8-3.6
		C76,135,76.9,133.8,79,131.4z"/>
	<path class="st0" d="M35.8,424.4l1,0.1c1.6,0.2,1.8,0.6,1.3,2.7c-0.6,2.5-2.6,10-4.1,14.4h-0.1l-6.4-17.7h-0.8L21,441.6h-0.1
		l-4.8-15.1c-0.5-1.6-0.3-1.9,1.3-2.1l1.1-0.1v-0.8H9.9v0.8c2,0.2,2.5,0.5,3.5,3.4l6.1,19h1l5.8-17.2l0.1-0.1l6.4,17.3h1
		c3-9.7,5.5-17.8,5.9-18.7c1.2-3.2,1.4-3.4,3.7-3.6v-0.8h-7.5V424.4z"/>
	<path class="st0" d="M76.4,442.3c-1.4-3.6-2.9-8.1-4.6-12.6l-2.5-6.7l-0.8,0.3l-7.3,18.8c-1.2,3.1-1.5,3.4-3.8,3.6v0.8h7.6v-0.8
		l-1.1-0.1c-1.6-0.1-1.9-0.6-1.2-2.6c0.5-1.5,1.4-4.2,1.8-5.2h7.2c1,2.5,2,5.3,2.3,6.1c0.4,1.1,0.2,1.5-1.1,1.6l-1.1,0.1v0.8h8.6
		v-0.8C78,445.5,77.5,445.3,76.4,442.3z M64.9,436.4l3.1-8.7H68l3.1,8.7H64.9z"/>
	<path class="st0" d="M107.3,433.1c-2.7-1.2-4.6-2.4-4.6-5c0-2.1,1.3-3.9,3.8-3.9c3.2,0,4.2,2.5,4.8,4.6l0.9-0.1
		c-0.3-2.1-0.5-3.5-0.6-4.8c-0.4-0.1-0.9-0.2-1.3-0.4c-0.7-0.2-1.9-0.5-2.9-0.5c-4.6,0-7.3,3-7.3,6.5c0,4.2,4.8,5.9,5.9,6.5
		c2.3,1.1,4.6,2.3,4.6,5.3c0,2.8-1.7,4.6-4.4,4.6c-3.7,0-5.5-3.9-6.1-5.6l-0.9,0.1c0.4,1.9,0.7,4.4,1,5.3c0.4,0.2,1.1,0.5,1.9,0.7
		c0.9,0.3,2.1,0.5,3.4,0.5c4.5,0,7.8-3,7.8-7.1C113.4,435.6,109.7,434.1,107.3,433.1z"/>
	<path class="st0" d="M148.8,424.4c2.8,0.2,3.1,0.5,3.1,4.3v5h-12.3v-5c0-3.8,0.3-4.1,3-4.3v-0.8h-9.3v0.8c3,0.2,3.3,0.5,3.3,4.3
		v12.7c0,3.8-0.3,4.1-3.2,4.3v0.8h9.3v-0.8c-2.9-0.2-3.2-0.5-3.2-4.3v-6.3h12.3v6.3c0,3.8-0.3,4.1-3.4,4.3v0.8h9.5v-0.8
		c-2.9-0.2-3.2-0.5-3.2-4.3v-12.7c0-3.8,0.3-4.1,3.2-4.3v-0.8h-9.3V424.4z"/>
	<path class="st0" d="M178.2,424.4c2.9,0.2,3.2,0.5,3.2,4.3v12.7c0,3.8-0.3,4.1-3.2,4.3v0.8h9.3v-0.8c-2.9-0.2-3.2-0.5-3.2-4.3
		v-12.7c0-3.8,0.3-4.1,3.2-4.3v-0.8h-9.3V424.4z"/>
	<path class="st0" d="M223.5,424.4c2.3,0.1,3.3,0.6,3.5,1.8c0.1,1.1,0.3,3,0.3,6.7v8.4h-0.1l-14.9-17.8h-5.2v0.8
		c1.5,0.1,2.4,0.4,3.1,1.2c0.6,0.8,0.7,1.4,0.7,3.9v7.7c0,3.7-0.1,5.6-0.3,6.7c-0.2,1.2-1.1,1.8-3,1.8v0.8h8.5v-0.8
		c-2.3-0.1-3.3-0.6-3.5-1.8c-0.1-1.1-0.3-3-0.3-6.7v-9h0.1l15.3,18.6h0.9v-13.8c0-3.7,0.1-5.6,0.3-6.7c0.2-1.2,1.1-1.8,3-1.8v-0.8
		h-8.5V424.4z"/>
	<path class="st0" d="M265.2,437.1c3.8,0.3,4,0.5,4,2.9v3.1c0,1.7-0.2,1.9-1,2.3c-0.8,0.3-2,0.5-3.3,0.5c-7,0-9.5-5.9-9.5-11.3
		c0-6.7,3.5-10.4,9-10.4c3.1,0,6.1,0.8,7.1,5.3l0.8-0.1c-0.3-2.4-0.5-4.3-0.6-5.5c-1.2-0.3-3.7-0.9-6.7-0.9
		c-6.7,0-13.1,4.3-13.1,12.3c0,6.9,5.4,11.8,12.9,11.8c2.7,0,5.5-0.8,7.7-1.4c-0.2-0.8-0.2-1.9-0.2-3.2V440c0-2.5,0.1-2.6,2.1-2.9
		v-0.8h-9.1V437.1z"/>
	<path class="st0" d="M312.4,422.7c-0.6,0.7-0.7,0.9-1.7,0.9h-14.5c-1,0-1.3-0.1-1.8-0.9H294c-0.1,1.8-0.3,4.1-0.4,6.2h0.9
		c0.4-1.6,0.8-2.5,1.2-3c0.5-0.7,1.5-1.1,4.6-1.1h1.7v16.7c0,3.8-0.3,4.1-3.6,4.3v0.8h10.3v-0.8c-3.5-0.2-3.7-0.5-3.7-4.3v-16.7h2.4
		c2.2,0,3.3,0.2,3.9,0.9c0.5,0.6,0.9,1.6,1.3,3.2l0.9-0.1c-0.2-2-0.4-4.6-0.4-6.1H312.4z"/>
	<path class="st0" d="M344.2,423c-7.9,0-12,6.3-12,12.3c0,6.7,4.7,11.8,11.4,11.8c6.7,0,11.9-5,11.9-12.3
		C355.5,427.7,350.3,423,344.2,423z M344.3,445.9c-5.2,0-8.7-4.8-8.7-11.6c0-6.6,3.5-10.1,7.7-10.1c5.1,0,8.7,4.2,8.7,11.8
		C352,442.6,348.6,445.9,344.3,445.9z"/>
	<path class="st0" d="M391.6,424.4c2.3,0.1,3.3,0.6,3.5,1.8c0.1,1.1,0.3,3,0.3,6.7v8.4h-0.1l-14.9-17.8h-5.2v0.8
		c1.5,0.1,2.4,0.4,3.1,1.2c0.6,0.8,0.7,1.4,0.7,3.9v7.7c0,3.7-0.1,5.6-0.3,6.7c-0.2,1.2-1.1,1.8-3,1.8v0.8h8.5v-0.8
		c-2.3-0.1-3.3-0.6-3.5-1.8c-0.1-1.1-0.3-3-0.3-6.7v-9h0.1l15.3,18.6h0.9v-13.8c0-3.7,0.1-5.6,0.3-6.7c0.2-1.2,1.1-1.8,3-1.8v-0.8
		h-8.5V424.4z"/>
	<path class="st0" d="M448.4,423.5h-9.9v0.8c2.8,0.2,3,0.5,3,4.3v12.7c0,3.8-0.3,4.1-3.3,4.3v0.8h8.1c8.3,0,15-3.8,15-12.5
		c0-3.3-1.3-5.8-3.1-7.5C456,424.4,452.6,423.5,448.4,423.5z M447.6,445.3c-1.2,0-2-0.2-2.5-0.6c-0.5-0.4-0.6-1.1-0.6-2.8v-16.2
		c0-0.7,0.1-0.9,0.3-1c0.3-0.1,0.8-0.2,2.5-0.2c2.8,0,4.8,0.4,6.2,1.2c3.5,1.8,4.3,5.6,4.3,9.2C457.9,440.2,455.1,445.3,447.6,445.3
		z"/>
	<path class="st0" d="M493.8,445.9c-5.7,0-9.2-4.5-9.2-11.3c0-5.5,2.8-10.3,9.2-10.3c3.5,0,5.7,1.1,6.8,5.2l0.9-0.1
		c-0.2-1.8-0.4-3.4-0.6-5.3c-1-0.2-3.4-0.9-6.4-0.9c-7.7,0-13.4,5.1-13.4,12.3c0,5.6,3.7,11.7,12.7,11.7c2.5,0,5.7-0.7,6.6-1
		c0.6-1.3,1.3-4.2,1.8-5.7l-0.9-0.1C499.6,444,497.7,445.9,493.8,445.9z"/>
	<path class="st0" d="M512.5,328.2c-4,0-7.2,3.2-7.2,7.1s3.2,7.1,7.2,7.1s7.2-3.2,7.2-7.1S516.5,328.2,512.5,328.2z M512.5,341.1
		c-3,0-5.5-2.6-5.5-5.9c0-3.3,2.5-5.9,5.5-5.9c3,0,5.5,2.6,5.5,5.9C518,338.5,515.5,341.1,512.5,341.1z"/>
	<path class="st0" d="M516.2,338.2c-0.2-0.1-0.3-0.2-0.5-0.3c-0.4-0.3-0.8-1.1-1.4-2.2c-0.1-0.2-0.1-0.3,0-0.4c0.4-0.2,1-0.8,1-1.6
		c0-1.6-1.6-1.9-2.8-1.9c-0.9,0-2,0.1-3.1,0.1c-0.2,0.1-0.2,0.4-0.1,0.6h0.2c0.4,0.1,0.6,0.4,0.6,1.1v3.2c0,0.9,0,1-0.6,1.2
		l-0.2,0.1c-0.1,0.1-0.1,0.5,0.1,0.6c0.5,0,1-0.1,1.6-0.1c0.7,0,1.1,0.1,1.7,0.1c0.1-0.1,0.1-0.5,0-0.6l-0.2-0.1
		c-0.8-0.1-0.8-0.3-0.8-1.2v-0.8c0-0.1,0.1-0.3,0.3-0.3c0.2,0,0.4,0.1,0.5,0.3c0.3,0.5,0.5,0.9,0.8,1.4c0.5,0.8,1.2,1.2,2.1,1.2
		c0.3,0,0.5,0,0.8-0.1C516.3,338.6,516.3,338.2,516.2,338.2z M512.4,335.1c-0.6,0-0.7,0-0.7-0.4V333c0-0.3,0.1-0.4,0.7-0.4
		c0.6,0,1.1,0.5,1.1,1.4C513.5,334.4,513.3,335.1,512.4,335.1z"/>
</g>
</svg>
